<svg version="1.1" id="Layer_1" xmlns="http://www.w3.org/2000/svg" xmlns:xlink="http://www.w3.org/1999/xlink" x="0px" y="0px"
	 width="100%" viewBox="0 0 1024 1024" enable-background="new 0 0 1024 1024" xml:space="preserve">
<path fill="#3E4347" opacity="1.000000" stroke="none" 
	d="
M445.000000,0.999994 
	C463.354218,1.000000 481.708466,1.000000 500.572754,1.388039 
	C501.598175,2.136398 502.076111,2.735291 502.634277,2.822851 
	C532.924622,7.574354 560.641418,18.579798 585.467712,36.700794 
	C599.323303,46.814140 612.047974,58.093845 622.490234,71.805695 
	C625.852783,76.221054 629.365601,80.521988 632.825623,84.895493 
	C633.572388,84.416611 634.111755,84.247314 634.369019,83.880257 
	C643.731018,70.521645 653.777893,57.682201 666.864929,47.792065 
	C678.588318,38.932423 690.315247,29.805067 703.088196,22.671597 
	C721.379639,12.456149 741.354126,6.183178 762.167358,2.921218 
	C763.186951,2.761422 764.059143,1.661922 765.000000,1.000000 
	C783.354248,1.000000 801.708435,1.000000 820.572754,1.388029 
	C822.095276,2.183951 823.074463,2.802362 824.125061,2.968432 
	C842.586914,5.886556 860.287048,11.430248 877.013672,19.619713 
	C900.308777,31.025194 920.768860,46.271889 937.739075,66.126236 
	C950.309021,80.832458 960.934204,96.638306 968.800415,114.375656 
	C984.244934,149.201691 988.561462,185.448425 983.006592,222.927231 
	C978.968750,250.170746 969.530396,275.450653 954.100098,298.400299 
	C944.429138,312.783936 933.782471,326.287170 920.243958,337.300323 
	C914.167847,342.242920 908.176147,347.289246 901.288025,353.000000 
	C904.036255,353.000000 905.807007,352.999969 907.577759,353.000000 
	C927.244080,353.000061 946.910339,352.993256 966.576660,353.002716 
	C978.504578,353.008453 984.996521,359.483948 984.997070,371.394379 
	C985.001831,476.392456 984.883850,581.390808 985.177795,686.388123 
	C985.207520,696.995789 977.217712,705.223450 966.295227,705.181702 
	C880.631348,704.853882 794.965698,705.000000 709.300598,705.000000 
	C707.224854,705.000000 705.149109,705.000000 702.305847,705.000000 
	C705.901550,713.496704 709.078308,721.107361 712.336609,728.682983 
	C721.831909,750.759460 731.392334,772.808105 740.865906,794.893982 
	C750.468506,817.280701 759.997498,839.698975 769.559509,862.103088 
	C778.080566,882.068237 786.573303,902.045532 795.132263,921.994385 
	C804.738953,944.385315 814.472168,966.722290 823.971863,989.158325 
	C825.318970,992.339844 827.181641,993.083557 830.363403,993.060791 
	C848.195496,992.933167 866.029724,993.085754 883.861450,992.935974 
	C887.677185,992.903992 889.192627,993.957642 889.076965,998.002808 
	C888.819946,1006.995239 888.998840,1016.000183 889.000000,1025.000000 
	C854.645752,1025.000000 820.291565,1025.000000 785.529297,1024.615112 
	C784.370972,1022.039551 783.746033,1019.796326 782.851196,1017.666443 
	C773.868103,996.285339 764.846069,974.920593 755.824646,953.555664 
	C739.517883,914.937378 723.195862,876.325500 706.895874,837.704346 
	C696.331116,812.672180 685.806030,787.623291 675.237244,762.592896 
	C672.242065,755.499512 669.155518,748.444702 666.110840,741.372253 
	C665.144592,743.146057 665.010864,744.714172 665.009460,746.282410 
	C664.994324,763.279297 665.000000,780.276184 665.000000,797.273071 
	C665.000061,860.261536 664.998535,923.250061 665.002441,986.238525 
	C665.002869,992.984497 665.017700,992.993408 671.874512,992.997986 
	C683.872314,993.006042 695.871948,993.119629 707.866882,992.934692 
	C711.692932,992.875671 713.191223,993.971252 713.076660,998.007202 
	C712.821350,1006.998291 712.998840,1016.001648 713.000000,1025.000000 
	C665.312439,1025.000000 617.624878,1025.000000 569.468628,1024.531372 
	C569.001099,1015.402283 569.162109,1006.737610 568.930786,998.083374 
	C568.826477,994.178772 570.101257,992.860779 574.051880,992.927063 
	C586.372681,993.133850 598.705322,992.775574 611.020508,993.109680 
	C615.970764,993.243958 617.100586,991.541931 617.093018,986.846191 
	C616.962891,906.405334 617.001404,825.964294 616.985413,745.523254 
	C616.985107,744.180237 616.768188,742.837219 616.652344,741.494141 
	C609.243164,757.519287 602.567993,773.529236 595.993713,789.580505 
	C586.766968,812.107666 577.661621,834.684570 568.419128,857.205200 
	C557.605347,883.554443 546.707031,909.868958 535.832214,936.193115 
	C526.853149,957.928223 517.788513,979.628296 508.900665,1001.400574 
	C505.724365,1009.181580 502.955078,1017.128723 500.000000,1025.000000 
	C463.979095,1025.000000 427.958221,1025.000000 391.468536,1024.531372 
	C391.000122,1015.564331 391.221863,1007.057861 390.909851,998.570923 
	C390.747742,994.161377 392.171356,992.855652 396.568787,992.908447 
	C414.896027,993.128540 433.228149,992.914978 451.556671,993.073730 
	C455.028320,993.103760 456.819855,992.096985 458.193176,988.772949 
	C463.571381,975.754883 469.327332,962.893311 474.879425,949.946350 
	C485.458405,925.277405 495.974976,900.581665 506.552979,875.912231 
	C515.957458,853.979797 525.434692,832.078552 534.834717,810.144226 
	C546.451965,783.036499 558.029663,755.911743 569.608887,728.787720 
	C572.893066,721.094543 576.122742,713.378113 579.661316,705.000000 
	C576.610596,705.000000 574.466309,705.000061 572.321960,705.000061 
	C481.172424,704.999939 390.022888,705.003540 298.873352,704.994873 
	C287.631073,704.993774 281.026978,698.341614 281.002960,687.060303 
	C280.988800,680.394897 281.000061,673.729492 281.000000,667.064087 
	C280.999939,661.281311 281.000000,655.498596 281.000000,649.421509 
	C278.835510,649.740601 277.351105,649.822205 275.940247,650.187744 
	C247.248901,657.621216 218.581482,665.147461 189.876938,672.529358 
	C161.648331,679.789001 133.383759,686.908875 105.090057,693.617554 
	C105.030083,585.963135 105.015747,478.781250 104.995346,371.599365 
	C104.994873,369.104034 104.926147,366.608673 105.294586,364.093628 
	C153.184479,376.235748 200.666809,388.406311 248.155319,400.552612 
	C258.856628,403.289734 269.579529,405.942230 280.999725,408.811371 
	C280.999725,406.441101 280.999664,404.645905 280.999725,402.850677 
	C281.000153,392.019745 280.975708,381.188782 281.008026,370.357941 
	C281.040527,359.468079 287.476959,353.025421 298.377991,353.009460 
	C318.540131,352.979919 338.702362,353.006561 358.864532,352.988586 
	C360.552338,352.987091 362.240021,352.825195 364.992126,352.682709 
	C350.917999,342.224060 338.420044,332.013489 327.831970,319.497620 
	C314.229645,303.418732 303.013184,286.020691 294.977966,266.526611 
	C282.232483,235.605072 278.576172,203.521698 281.935394,170.415436 
	C284.117737,148.908020 290.155884,128.459976 299.558838,109.160484 
	C310.914093,85.853958 325.737976,64.832954 346.175049,48.537025 
	C357.909851,39.180016 370.049683,30.014055 383.088165,22.685213 
	C401.350800,12.419889 421.351227,6.183425 442.166931,2.921237 
	C443.186584,2.761436 444.058990,1.661918 445.000000,0.999994 
M369.500000,673.000000 
	C556.778259,673.000000 744.056519,673.003174 931.334778,672.971436 
	C934.310303,672.970886 937.372803,672.912659 940.244568,672.240173 
	C948.181030,670.381714 952.939270,664.504944 952.977173,657.066589 
	C953.015930,649.455505 948.050598,643.406494 939.910156,641.653870 
	C937.020081,641.031738 933.960876,641.024719 930.978882,641.024292 
	C732.370605,640.997437 533.762390,640.999634 335.154144,641.004883 
	C332.989105,641.004944 330.800873,640.889343 328.663269,641.151917 
	C321.945679,641.976868 316.549072,644.868469 314.026367,651.559204 
	C309.957703,662.350342 317.877075,672.747681 330.511902,672.946899 
	C343.171753,673.146545 355.837067,672.996643 369.500000,673.000000 
M354.552307,433.000000 
	C351.479889,433.000000 348.407471,433.000000 345.466797,433.000000 
	C345.466797,454.855225 345.466797,475.736115 345.466797,496.599976 
	C430.781494,496.599976 515.628784,496.599976 600.618713,496.599976 
	C600.618713,475.318817 600.618713,454.439392 600.618713,433.000000 
	C518.671265,433.000000 437.103790,433.000000 354.552307,433.000000 
M600.897278,530.904724 
	C599.069275,530.270081 597.241821,529.082336 595.413147,529.080322 
	C513.798035,528.988403 432.182831,528.998596 350.567627,529.014954 
	C348.817383,529.015320 347.067230,529.226868 345.464478,529.330383 
	C345.464478,550.848145 345.464478,571.730103 345.464478,592.595276 
	C430.781555,592.595276 515.633484,592.595276 600.969604,592.595276 
	C600.969604,572.074768 600.969604,551.954895 600.897278,530.904724 
M921.000000,547.500000 
	C921.000000,504.117737 921.000000,460.735474 921.000000,417.432312 
	C835.175842,417.432312 750.317383,417.432312 665.394043,417.432312 
	C665.394043,481.398315 665.394043,544.931213 665.394043,608.656128 
	C750.646545,608.656128 835.504761,608.656128 921.000000,608.656128 
	C921.000000,588.379272 921.000000,568.439636 921.000000,547.500000 
M521.385803,151.131195 
	C509.556366,137.754013 494.728485,129.955017 476.924591,129.194153 
	C450.423065,128.061569 429.780243,139.148941 417.021881,162.391418 
	C404.355072,185.467072 405.760254,208.934494 421.215942,230.225418 
	C436.700409,251.556107 458.418335,260.472076 484.615814,255.839264 
	C515.184021,250.433563 537.266785,224.097626 536.903992,191.960312 
	C536.733704,176.878311 531.674866,163.301361 521.385803,151.131195 
M854.451294,175.183136 
	C844.266296,142.130310 811.604431,122.913925 778.729492,130.632797 
	C745.254150,138.492645 724.311523,169.854172 730.037598,204.158325 
	C735.246643,235.365463 764.087402,260.948822 800.045715,256.608948 
	C840.299927,251.750549 863.982178,215.629883 854.451294,175.183136 
M675.085999,345.458771 
	C658.829834,332.796326 644.974976,317.820740 632.919983,300.210602 
	C618.843628,321.386078 601.763428,338.155273 580.981506,352.559265 
	C616.182068,352.559265 650.015747,352.559265 684.957153,352.559265 
	C681.246521,349.876770 678.466492,347.867035 675.085999,345.458771 
z"/>
<path fill="#000000" opacity="1.000000" stroke="none" 
	d="
M444.531342,0.999994 
	C444.058990,1.661918 443.186584,2.761436 442.166931,2.921237 
	C421.351227,6.183425 401.350800,12.419889 383.088165,22.685213 
	C370.049683,30.014055 357.909851,39.180016 346.175049,48.537025 
	C325.737976,64.832954 310.914093,85.853958 299.558838,109.160484 
	C290.155884,128.459976 284.117737,148.908020 281.935394,170.415436 
	C278.576172,203.521698 282.232483,235.605072 294.977966,266.526611 
	C303.013184,286.020691 314.229645,303.418732 327.831970,319.497620 
	C338.420044,332.013489 350.917999,342.224060 364.992126,352.682709 
	C362.240021,352.825195 360.552338,352.987091 358.864532,352.988586 
	C338.702362,353.006561 318.540131,352.979919 298.377991,353.009460 
	C287.476959,353.025421 281.040527,359.468079 281.008026,370.357941 
	C280.975708,381.188782 281.000153,392.019745 280.999725,402.850677 
	C280.999664,404.645905 280.999725,406.441101 280.999725,408.811371 
	C269.579529,405.942230 258.856628,403.289734 248.155319,400.552612 
	C200.666809,388.406311 153.184479,376.235748 104.957047,363.905396 
	C90.222298,360.204651 76.263596,356.533539 62.228256,353.183472 
	C50.634365,350.416168 41.000431,358.222565 41.000362,370.053680 
	C40.999737,476.031281 40.999763,582.008850 41.000305,687.986450 
	C41.000359,698.594482 47.745499,706.333008 58.242004,704.694885 
	C74.039886,702.229309 89.519852,697.726685 105.134956,694.090027 
	C133.383759,686.908875 161.648331,679.789001 189.876938,672.529358 
	C218.581482,665.147461 247.248901,657.621216 275.940247,650.187744 
	C277.351105,649.822205 278.835510,649.740601 281.000000,649.421509 
	C281.000000,655.498596 280.999939,661.281311 281.000000,667.064087 
	C281.000061,673.729492 280.988800,680.394897 281.002960,687.060303 
	C281.026978,698.341614 287.631073,704.993774 298.873352,704.994873 
	C390.022888,705.003540 481.172424,704.999939 572.321960,705.000061 
	C574.466309,705.000061 576.610596,705.000000 579.661316,705.000000 
	C576.122742,713.378113 572.893066,721.094543 569.608887,728.787720 
	C558.029663,755.911743 546.451965,783.036499 534.834717,810.144226 
	C525.434692,832.078552 515.957458,853.979797 506.552979,875.912231 
	C495.974976,900.581665 485.458405,925.277405 474.879425,949.946350 
	C469.327332,962.893311 463.571381,975.754883 458.193176,988.772949 
	C456.819855,992.096985 455.028320,993.103760 451.556671,993.073730 
	C433.228149,992.914978 414.896027,993.128540 396.568787,992.908447 
	C392.171356,992.855652 390.747742,994.161377 390.909851,998.570923 
	C391.221863,1007.057861 391.000122,1015.564331 390.999878,1024.531372 
	C261.030579,1025.000000 131.061172,1025.000000 1.045876,1025.000000 
	C1.045876,683.777588 1.045876,342.555115 1.045876,1.000000 
	C148.687393,1.000000 296.375031,1.000000 444.531342,0.999994 
z"/>
<path fill="#000000" opacity="1.000000" stroke="none" 
	d="
M889.468628,1025.000000 
	C888.998840,1016.000183 888.819946,1006.995239 889.076965,998.002808 
	C889.192627,993.957642 887.677185,992.903992 883.861450,992.935974 
	C866.029724,993.085754 848.195496,992.933167 830.363403,993.060791 
	C827.181641,993.083557 825.318970,992.339844 823.971863,989.158325 
	C814.472168,966.722290 804.738953,944.385315 795.132263,921.994385 
	C786.573303,902.045532 778.080566,882.068237 769.559509,862.103088 
	C759.997498,839.698975 750.468506,817.280701 740.865906,794.893982 
	C731.392334,772.808105 721.831909,750.759460 712.336609,728.682983 
	C709.078308,721.107361 705.901550,713.496704 702.305847,705.000000 
	C705.149109,705.000000 707.224854,705.000000 709.300598,705.000000 
	C794.965698,705.000000 880.631348,704.853882 966.295227,705.181702 
	C977.217712,705.223450 985.207520,696.995789 985.177795,686.388123 
	C984.883850,581.390808 985.001831,476.392456 984.997070,371.394379 
	C984.996521,359.483948 978.504578,353.008453 966.576660,353.002716 
	C946.910339,352.993256 927.244080,353.000061 907.577759,353.000000 
	C905.807007,352.999969 904.036255,353.000000 901.288025,353.000000 
	C908.176147,347.289246 914.167847,342.242920 920.243958,337.300323 
	C933.782471,326.287170 944.429138,312.783936 954.100098,298.400299 
	C969.530396,275.450653 978.968750,250.170746 983.006592,222.927231 
	C988.561462,185.448425 984.244934,149.201691 968.800415,114.375656 
	C960.934204,96.638306 950.309021,80.832458 937.739075,66.126236 
	C920.768860,46.271889 900.308777,31.025194 877.013672,19.619713 
	C860.287048,11.430248 842.586914,5.886556 824.125061,2.968432 
	C823.074463,2.802362 822.095276,2.183951 821.041443,1.388029 
	C888.978210,1.000000 956.956360,1.000000 1024.940796,1.000001 
	C1024.947021,342.333344 1024.947021,683.666687 1024.947021,1025.000000 
	C979.908569,1025.000000 934.922913,1025.000000 889.468628,1025.000000 
z"/>
<path fill="#000000" opacity="1.000000" stroke="none" 
	d="
M713.468628,1025.000000 
	C712.998840,1016.001648 712.821350,1006.998291 713.076660,998.007202 
	C713.191223,993.971252 711.692932,992.875671 707.866882,992.934692 
	C695.871948,993.119629 683.872314,993.006042 671.874512,992.997986 
	C665.017700,992.993408 665.002869,992.984497 665.002441,986.238525 
	C664.998535,923.250061 665.000061,860.261536 665.000000,797.273071 
	C665.000000,780.276184 664.994324,763.279297 665.009460,746.282410 
	C665.010864,744.714172 665.144592,743.146057 666.110840,741.372253 
	C669.155518,748.444702 672.242065,755.499512 675.237244,762.592896 
	C685.806030,787.623291 696.331116,812.672180 706.895874,837.704346 
	C723.195862,876.325500 739.517883,914.937378 755.824646,953.555664 
	C764.846069,974.920593 773.868103,996.285339 782.851196,1017.666443 
	C783.746033,1019.796326 784.370972,1022.039551 785.060608,1024.615112 
	C761.312439,1025.000000 737.624878,1025.000000 713.468628,1025.000000 
z"/>
<path fill="#000000" opacity="1.000000" stroke="none" 
	d="
M500.468689,1025.000000 
	C502.955078,1017.128723 505.724365,1009.181580 508.900665,1001.400574 
	C517.788513,979.628296 526.853149,957.928223 535.832214,936.193115 
	C546.707031,909.868958 557.605347,883.554443 568.419128,857.205200 
	C577.661621,834.684570 586.766968,812.107666 595.993713,789.580505 
	C602.567993,773.529236 609.243164,757.519287 616.652344,741.494141 
	C616.768188,742.837219 616.985107,744.180237 616.985413,745.523254 
	C617.001404,825.964294 616.962891,906.405334 617.093018,986.846191 
	C617.100586,991.541931 615.970764,993.243958 611.020508,993.109680 
	C598.705322,992.775574 586.372681,993.133850 574.051880,992.927063 
	C570.101257,992.860779 568.826477,994.178772 568.930786,998.083374 
	C569.162109,1006.737610 569.001099,1015.402283 569.000000,1024.531372 
	C546.312439,1025.000000 523.624878,1025.000000 500.468689,1025.000000 
z"/>
<path fill="#000000" opacity="1.000000" stroke="none" 
	d="
M764.531372,1.000000 
	C764.059143,1.661922 763.186951,2.761422 762.167358,2.921218 
	C741.354126,6.183178 721.379639,12.456149 703.088196,22.671597 
	C690.315247,29.805067 678.588318,38.932423 666.864929,47.792065 
	C653.777893,57.682201 643.731018,70.521645 634.369019,83.880257 
	C634.111755,84.247314 633.572388,84.416611 632.825623,84.895493 
	C629.365601,80.521988 625.852783,76.221054 622.490234,71.805695 
	C612.047974,58.093845 599.323303,46.814140 585.467712,36.700794 
	C560.641418,18.579798 532.924622,7.574354 502.634277,2.822851 
	C502.076111,2.735291 501.598175,2.136398 501.041412,1.388039 
	C588.687561,1.000000 676.375122,1.000000 764.531372,1.000000 
z"/>
<path fill="#94989B" opacity="1.000000" stroke="none" 
	d="
M105.090057,693.617554 
	C89.519852,697.726685 74.039886,702.229309 58.242004,704.694885 
	C47.745499,706.333008 41.000359,698.594482 41.000305,687.986450 
	C40.999763,582.008850 40.999737,476.031281 41.000362,370.053680 
	C41.000431,358.222565 50.634365,350.416168 62.228256,353.183472 
	C76.263596,356.533539 90.222298,360.204651 104.551712,363.925079 
	C104.926147,366.608673 104.994873,369.104034 104.995346,371.599365 
	C105.015747,478.781250 105.030083,585.963135 105.090057,693.617554 
z"/>
<path fill="#94989B" opacity="1.000000" stroke="none" 
	d="
M369.000000,673.000000 
	C355.837067,672.996643 343.171753,673.146545 330.511902,672.946899 
	C317.877075,672.747681 309.957703,662.350342 314.026367,651.559204 
	C316.549072,644.868469 321.945679,641.976868 328.663269,641.151917 
	C330.800873,640.889343 332.989105,641.004944 335.154144,641.004883 
	C533.762390,640.999634 732.370605,640.997437 930.978882,641.024292 
	C933.960876,641.024719 937.020081,641.031738 939.910156,641.653870 
	C948.050598,643.406494 953.015930,649.455505 952.977173,657.066589 
	C952.939270,664.504944 948.181030,670.381714 940.244568,672.240173 
	C937.372803,672.912659 934.310303,672.970886 931.334778,672.971436 
	C744.056519,673.003174 556.778259,673.000000 369.000000,673.000000 
z"/>
<path fill="#94989B" opacity="1.000000" stroke="none" 
	d="
M355.044312,433.000000 
	C437.103790,433.000000 518.671265,433.000000 600.618713,433.000000 
	C600.618713,454.439392 600.618713,475.318817 600.618713,496.599976 
	C515.628784,496.599976 430.781494,496.599976 345.466797,496.599976 
	C345.466797,475.736115 345.466797,454.855225 345.466797,433.000000 
	C348.407471,433.000000 351.479889,433.000000 355.044312,433.000000 
z"/>
<path fill="#94989B" opacity="1.000000" stroke="none" 
	d="
M600.933472,531.369873 
	C600.969604,551.954895 600.969604,572.074768 600.969604,592.595276 
	C515.633484,592.595276 430.781555,592.595276 345.464478,592.595276 
	C345.464478,571.730103 345.464478,550.848145 345.464478,529.330383 
	C347.067230,529.226868 348.817383,529.015320 350.567627,529.014954 
	C432.182831,528.998596 513.798035,528.988403 595.413147,529.080322 
	C597.241821,529.082336 599.069275,530.270081 600.933472,531.369873 
z"/>
<path fill="#94989B" opacity="1.000000" stroke="none" 
	d="
M921.000000,548.000000 
	C921.000000,568.439636 921.000000,588.379272 921.000000,608.656128 
	C835.504761,608.656128 750.646545,608.656128 665.394043,608.656128 
	C665.394043,544.931213 665.394043,481.398315 665.394043,417.432312 
	C750.317383,417.432312 835.175842,417.432312 921.000000,417.432312 
	C921.000000,460.735474 921.000000,504.117737 921.000000,548.000000 
M869.500000,433.000000 
	C806.796204,433.000000 744.092468,433.000000 681.428528,433.000000 
	C681.428528,486.800110 681.428528,539.667358 681.428528,592.622559 
	C756.048706,592.622559 830.239807,592.622559 904.659912,592.622559 
	C904.659912,539.377991 904.659912,486.511169 904.659912,433.000000 
	C893.053772,433.000000 881.776855,433.000000 869.500000,433.000000 
z"/>
<path fill="#94989B" opacity="1.000000" stroke="none" 
	d="
M521.622192,151.395737 
	C531.674866,163.301361 536.733704,176.878311 536.903992,191.960312 
	C537.266785,224.097626 515.184021,250.433563 484.615814,255.839264 
	C458.418335,260.472076 436.700409,251.556107 421.215942,230.225418 
	C405.760254,208.934494 404.355072,185.467072 417.021881,162.391418 
	C429.780243,139.148941 450.423065,128.061569 476.924591,129.194153 
	C494.728485,129.955017 509.556366,137.754013 521.622192,151.395737 
z"/>
<path fill="#94989B" opacity="1.000000" stroke="none" 
	d="
M854.581787,175.574554 
	C863.982178,215.629883 840.299927,251.750549 800.045715,256.608948 
	C764.087402,260.948822 735.246643,235.365463 730.037598,204.158325 
	C724.311523,169.854172 745.254150,138.492645 778.729492,130.632797 
	C811.604431,122.913925 844.266296,142.130310 854.581787,175.574554 
z"/>
<path fill="#000000" opacity="1.000000" stroke="none" 
	d="
M675.386230,345.658051 
	C678.466492,347.867035 681.246521,349.876770 684.957153,352.559265 
	C650.015747,352.559265 616.182068,352.559265 580.981506,352.559265 
	C601.763428,338.155273 618.843628,321.386078 632.919983,300.210602 
	C644.974976,317.820740 658.829834,332.796326 675.386230,345.658051 
z"/>
<path fill="#3E4347" opacity="1.000000" stroke="none" 
	d="
M870.000000,433.000000 
	C881.776855,433.000000 893.053772,433.000000 904.659912,433.000000 
	C904.659912,486.511169 904.659912,539.377991 904.659912,592.622559 
	C830.239807,592.622559 756.048706,592.622559 681.428528,592.622559 
	C681.428528,539.667358 681.428528,486.800110 681.428528,433.000000 
	C744.092468,433.000000 806.796204,433.000000 870.000000,433.000000 
z"/>
</svg>